<mxfile host="app.diagrams.net" modified="2021-12-02T06:03:24.837Z" agent="5.0 (Windows NT 6.1) AppleWebKit/537.36 (KHTML, like Gecko) Chrome/96.0.4664.45 Safari/537.36" etag="94lVQRLtIDLGCEKPEtXf" version="15.8.8" type="github">
  <diagram id="GA6bE_T4MXft8QmKDkz6" name="Page-1">
    <mxGraphModel dx="920" dy="579" grid="1" gridSize="10" guides="1" tooltips="1" connect="1" arrows="1" fold="1" page="1" pageScale="1" pageWidth="850" pageHeight="1100" math="0" shadow="0">
      <root>
        <mxCell id="0" />
        <mxCell id="1" parent="0" />
        <mxCell id="q-OH-z4CLU2f2EfrmYsm-1" value="&lt;h1 dir=&quot;auto&quot; style=&quot;box-sizing: border-box ; margin-right: 0px ; margin-bottom: 16px ; margin-left: 0px ; line-height: 1.25 ; padding-bottom: 0.3em ; border-bottom: 1px solid ; color: rgb(36 , 41 , 47) ; font-family: , &amp;#34;blinkmacsystemfont&amp;#34; , &amp;#34;segoe ui&amp;#34; , &amp;#34;helvetica&amp;#34; , &amp;#34;arial&amp;#34; , sans-serif , &amp;#34;apple color emoji&amp;#34; , &amp;#34;segoe ui emoji&amp;#34; ; background-color: rgb(255 , 255 , 255) ; margin-top: 0px&quot;&gt;&lt;span style=&quot;font-weight: normal&quot;&gt;Oxbridge&lt;/span&gt;&lt;/h1&gt;&lt;h1 dir=&quot;auto&quot; style=&quot;box-sizing: border-box ; margin-right: 0px ; margin-bottom: 16px ; margin-left: 0px ; line-height: 1.25 ; padding-bottom: 0.3em ; border-bottom: 1px solid ; color: rgb(36 , 41 , 47) ; font-family: , &amp;#34;blinkmacsystemfont&amp;#34; , &amp;#34;segoe ui&amp;#34; , &amp;#34;helvetica&amp;#34; , &amp;#34;arial&amp;#34; , sans-serif , &amp;#34;apple color emoji&amp;#34; , &amp;#34;segoe ui emoji&amp;#34; ; background-color: rgb(255 , 255 , 255) ; margin-top: 0px&quot;&gt;&lt;span style=&quot;font-weight: normal&quot;&gt;Convent&lt;/span&gt;&lt;/h1&gt;&lt;h1 dir=&quot;auto&quot; style=&quot;box-sizing: border-box ; margin-right: 0px ; margin-bottom: 16px ; margin-left: 0px ; line-height: 1.25 ; padding-bottom: 0.3em ; border-bottom: 1px solid ; color: rgb(36 , 41 , 47) ; font-family: , &amp;#34;blinkmacsystemfont&amp;#34; , &amp;#34;segoe ui&amp;#34; , &amp;#34;helvetica&amp;#34; , &amp;#34;arial&amp;#34; , sans-serif , &amp;#34;apple color emoji&amp;#34; , &amp;#34;segoe ui emoji&amp;#34; ; background-color: rgb(255 , 255 , 255) ; margin-top: 0px&quot;&gt;&lt;span style=&quot;font-weight: normal&quot;&gt;High&lt;/span&gt;&lt;/h1&gt;&lt;h1 dir=&quot;auto&quot; style=&quot;box-sizing: border-box ; margin-right: 0px ; margin-bottom: 16px ; margin-left: 0px ; line-height: 1.25 ; padding-bottom: 0.3em ; border-bottom: 1px solid ; color: rgb(36 , 41 , 47) ; font-family: , &amp;#34;blinkmacsystemfont&amp;#34; , &amp;#34;segoe ui&amp;#34; , &amp;#34;helvetica&amp;#34; , &amp;#34;arial&amp;#34; , sans-serif , &amp;#34;apple color emoji&amp;#34; , &amp;#34;segoe ui emoji&amp;#34; ; background-color: rgb(255 , 255 , 255) ; margin-top: 0px&quot;&gt;&lt;span style=&quot;font-weight: normal&quot;&gt;School&lt;/span&gt;&lt;/h1&gt;" style="rounded=0;whiteSpace=wrap;html=1;" vertex="1" parent="1">
          <mxGeometry x="40" y="19" width="400" height="400" as="geometry" />
        </mxCell>
        <mxCell id="q-OH-z4CLU2f2EfrmYsm-2" value="A" style="rounded=0;whiteSpace=wrap;html=1;" vertex="1" parent="1">
          <mxGeometry x="481" y="40" width="120" height="40" as="geometry" />
        </mxCell>
        <mxCell id="q-OH-z4CLU2f2EfrmYsm-3" value="B" style="rounded=0;whiteSpace=wrap;html=1;" vertex="1" parent="1">
          <mxGeometry x="481" y="120" width="120" height="40" as="geometry" />
        </mxCell>
        <mxCell id="q-OH-z4CLU2f2EfrmYsm-4" value="C" style="rounded=0;whiteSpace=wrap;html=1;" vertex="1" parent="1">
          <mxGeometry x="481" y="200" width="120" height="40" as="geometry" />
        </mxCell>
        <mxCell id="q-OH-z4CLU2f2EfrmYsm-5" value="D" style="rounded=0;whiteSpace=wrap;html=1;" vertex="1" parent="1">
          <mxGeometry x="481" y="280" width="120" height="40" as="geometry" />
        </mxCell>
        <mxCell id="q-OH-z4CLU2f2EfrmYsm-6" value="E" style="rounded=0;whiteSpace=wrap;html=1;" vertex="1" parent="1">
          <mxGeometry x="481" y="360" width="120" height="40" as="geometry" />
        </mxCell>
      </root>
    </mxGraphModel>
  </diagram>
</mxfile>
